<?xml version="1.0" standalone="no"?>
<!DOCTYPE svg PUBLIC "-//W3C//DTD SVG 20010904//EN"
 "http://www.w3.org/TR/2001/REC-SVG-20010904/DTD/svg10.dtd">
<svg version="1.0" xmlns="http://www.w3.org/2000/svg"
 width="310.000000pt" height="310.000000pt" viewBox="0 0 310.000000 310.000000"
 preserveAspectRatio="xMidYMid meet">
<metadata>
Created by potrace 1.11, written by Peter Selinger 2001-2013
</metadata>
<g transform="translate(0.000000,310.000000) scale(0.100000,-0.100000)"
fill="#000000" stroke="none">
<path d="M407 2520 c-10 -4 -13 -44 -13 -162 0 -137 2 -158 15 -159 9 0 111
-1 226 -2 l210 -2 1 -500 c0 -275 -3 -519 -8 -543 -20 -109 -80 -174 -182
-197 -35 -8 -149 -8 -189 0 -106 21 -235 88 -330 172 -20 18 -40 33 -45 33 -4
0 -6 -24 -5 -52 1 -29 2 -123 2 -210 l1 -156 74 -31 c166 -69 320 -99 478 -95
252 7 427 93 500 245 25 51 38 88 37 99 0 3 4 17 10 32 16 43 25 141 26 290 0
85 4 138 10 138 7 0 7 3 0 8 -6 4 -10 55 -10 117 0 62 4 113 10 117 7 5 7 8 0
8 -6 0 -10 45 -10 115 0 70 4 115 10 115 7 0 7 3 0 8 -6 4 -10 55 -10 117 0
62 4 113 10 117 7 5 7 8 0 8 -6 0 -10 45 -10 115 0 70 4 115 10 115 7 0 7 3 0
8 -5 4 -10 36 -10 72 l0 64 -398 1 c-219 0 -403 -2 -410 -5z"/>
<path d="M2053 2515 c-8 -6 -16 -22 -18 -35 -4 -28 -6 -36 -24 -100 -16 -55
-22 -80 -25 -100 -1 -9 -5 -20 -8 -26 -4 -6 -10 -24 -13 -40 -8 -39 -13 -59
-15 -59 -1 0 -3 -7 -5 -15 -2 -8 -18 -69 -35 -135 -18 -66 -33 -127 -35 -135
-2 -8 -4 -15 -5 -15 0 0 -16 -56 -35 -125 -18 -69 -41 -152 -50 -185 -9 -33
-19 -67 -21 -75 -20 -79 -39 -150 -79 -295 -44 -161 -63 -231 -70 -265 -2 -8
-4 -16 -5 -17 -2 -2 -3 -6 -4 -10 -1 -5 -5 -17 -9 -28 -3 -11 -9 -33 -12 -50
-7 -36 -10 -45 -19 -67 -4 -9 -5 -21 -2 -27 4 -5 2 -12 -4 -16 -5 -3 -10 -15
-10 -26 0 -19 7 -19 182 -17 l183 3 22 85 c12 47 22 85 23 85 1 0 3 11 5 25 2
14 11 54 20 90 25 100 36 144 37 158 1 7 18 12 47 12 474 6 451 6 458 -15 4
-11 7 -24 8 -30 1 -13 15 -66 22 -85 3 -8 7 -22 8 -30 4 -25 13 -63 24 -97 5
-18 7 -33 4 -33 -3 0 -1 -6 4 -12 5 -7 10 -26 12 -43 2 -16 6 -32 10 -35 3 -3
7 -16 9 -30 5 -51 0 -50 196 -50 191 0 190 0 173 40 -4 8 -8 24 -10 35 -2 11
-7 27 -10 35 -4 8 -8 26 -10 40 -2 14 -7 33 -12 42 -4 10 -8 29 -9 43 0 14 -5
25 -10 25 -5 0 -7 3 -4 6 4 3 2 20 -4 37 -9 30 -33 119 -45 162 -3 11 -6 28
-6 38 -1 9 -5 17 -10 17 -5 0 -7 9 -4 20 3 10 1 20 -3 22 -5 2 -11 17 -13 33
-3 17 -11 46 -17 65 -6 19 -13 46 -16 60 -3 13 -23 89 -45 168 -21 78 -41 151
-43 160 -1 9 -6 24 -9 32 -3 8 -8 26 -12 40 -41 157 -66 251 -75 280 -5 19
-13 48 -16 64 -2 16 -9 36 -13 45 -5 9 -9 19 -10 24 -1 4 -1 8 -2 10 0 1 -2
11 -4 22 -2 11 -13 56 -25 100 -12 44 -23 85 -25 90 -15 65 -29 107 -38 112
-18 11 -429 9 -444 -2z m238 -397 c5 -24 11 -52 14 -63 13 -61 18 -83 22 -112
3 -18 8 -33 12 -33 4 0 8 -16 9 -35 2 -20 7 -47 12 -60 5 -14 8 -25 5 -25 -2
0 2 -17 9 -37 7 -21 11 -44 9 -50 -3 -7 -1 -13 4 -13 4 0 9 -10 9 -22 1 -13 4
-32 7 -43 16 -60 45 -200 42 -203 -5 -5 -335 -5 -340 0 -3 2 0 20 5 39 6 19
12 45 15 59 5 27 12 57 21 93 3 12 7 33 10 47 3 14 10 43 15 65 5 22 12 54 15
70 3 17 7 37 10 45 3 8 8 26 11 40 9 43 11 55 13 55 1 0 3 9 5 20 2 19 13 67
19 90 1 6 8 36 16 68 7 31 15 55 18 52 2 -2 9 -24 13 -47z"/>
</g>
</svg>
