<?xml version="1.0" standalone="no"?>
<!DOCTYPE svg PUBLIC "-//W3C//DTD SVG 20010904//EN"
 "http://www.w3.org/TR/2001/REC-SVG-20010904/DTD/svg10.dtd">
<svg version="1.0" xmlns="http://www.w3.org/2000/svg"
 width="310.000000pt" height="310.000000pt" viewBox="0 0 310.000000 310.000000"
 preserveAspectRatio="xMidYMid meet">
<metadata>
Created by potrace 1.11, written by Peter Selinger 2001-2013
</metadata>
<g transform="translate(0.000000,310.000000) scale(0.100000,-0.100000)"
fill="#000000" stroke="none">
<path d="M782 2445 c-8 -18 -8 -25 -1 -25 8 0 7 -5 -1 -15 -10 -12 -10 -15 0
-15 10 0 10 -3 0 -15 -7 -8 -8 -15 -3 -15 11 0 11 -29 -1 -48 -4 -6 -5 -13 -2
-13 22 -5 32 -4 43 3 6 5 14 5 18 -2 3 -6 11 -8 16 -4 5 3 6 10 3 16 -4 7 -2
8 5 4 6 -4 9 -11 6 -16 -3 -4 2 -11 11 -14 8 -3 12 -2 9 3 -3 5 -1 12 5 16 5
3 10 1 10 -5 0 -6 5 -8 13 -3 18 11 36 12 43 2 3 -5 10 -7 15 -3 5 3 6 10 3
16 -4 7 -2 8 5 4 6 -4 9 -11 6 -16 -3 -4 2 -11 11 -14 8 -3 12 -2 9 3 -3 5 -1
12 5 16 5 3 10 1 10 -5 0 -6 5 -8 13 -3 25 16 59 10 66 -11 5 -16 7 -890 2
-1004 -1 -15 -5 -21 -13 -17 -7 4 -5 0 5 -8 10 -8 14 -17 8 -18 -5 -2 -12 -17
-14 -34 -13 -72 -21 -97 -33 -102 -8 -3 -12 -8 -10 -12 1 -3 -11 -19 -27 -36
-17 -16 -27 -23 -23 -15 5 9 2 8 -7 -2 -8 -10 -17 -15 -20 -12 -3 3 -16 0 -29
-7 -12 -7 -27 -12 -32 -11 -5 2 -6 -5 -2 -15 6 -17 5 -17 -8 0 -9 12 -16 14
-21 8 -3 -6 -11 -11 -16 -11 -6 0 -7 5 -3 11 4 7 -1 7 -16 -1 -18 -10 -24 -9
-32 1 -7 10 -11 11 -14 2 -3 -7 -12 -9 -20 -6 -7 3 -12 8 -9 12 2 4 -2 8 -10
8 -8 0 -12 -4 -9 -9 9 -13 -4 -9 -20 8 -9 8 -16 11 -16 5 0 -6 -9 -2 -20 9
-11 11 -25 20 -32 20 -6 0 -3 -7 8 -16 10 -8 12 -12 4 -8 -8 4 -26 16 -39 28
-13 12 -21 15 -17 8 7 -11 4 -11 -15 0 -13 7 -28 19 -32 26 -5 7 -13 9 -19 6
-6 -4 -14 0 -19 7 -15 25 -20 2 -22 -94 -2 -72 1 -93 10 -90 7 3 15 -1 18 -9
3 -8 15 -14 26 -15 12 -1 31 -10 42 -20 11 -10 17 -13 14 -7 -4 7 0 15 9 18 8
3 12 2 9 -4 -3 -6 0 -10 9 -10 8 0 17 -6 19 -12 4 -9 6 -9 6 1 1 11 5 10 17
-5 8 -10 12 -12 8 -4 -7 13 -5 13 8 2 13 -10 17 -10 21 0 4 9 6 10 6 1 1 -7 8
-10 18 -6 11 4 14 3 9 -5 -9 -16 7 -15 22 0 9 9 12 9 12 -1 0 -10 3 -11 14 -2
11 9 16 9 21 0 6 -8 10 -7 16 2 7 11 9 11 9 1 0 -8 5 -10 12 -6 17 11 79 13
72 3 -3 -5 2 -6 10 -3 9 3 13 10 10 15 -3 5 0 9 5 9 6 0 11 -8 11 -17 0 -16 1
-16 13 0 14 19 65 40 78 31 5 -3 12 1 15 10 3 9 12 12 22 9 9 -4 14 -3 10 2
-8 9 10 28 35 38 11 4 15 12 11 19 -5 8 -2 9 10 5 9 -4 15 -3 12 2 -3 4 3 17
14 28 10 12 16 24 13 27 -4 3 -2 6 4 6 6 0 16 14 23 30 7 16 15 30 19 30 4 0
7 8 8 18 1 9 4 28 7 42 3 14 8 36 12 50 3 14 6 46 7 72 1 27 6 48 10 48 4 0 3
9 -3 20 -8 15 -8 20 2 20 9 0 9 3 -2 10 -8 5 -10 10 -4 10 12 0 11 41 -2 61
-4 7 -3 10 3 6 6 -4 10 9 9 33 -1 22 -5 40 -11 40 -7 0 -7 3 0 8 6 4 10 69 10
157 0 88 -4 153 -10 157 -7 5 -7 8 0 8 12 0 12 131 0 150 -5 8 -4 11 3 6 14
-8 11 66 -3 76 -7 5 -7 8 0 8 12 0 12 131 0 150 -5 8 -4 11 2 7 6 -4 10 9 9
33 -1 22 -5 40 -11 40 -7 0 -7 3 0 8 6 4 10 37 10 73 0 61 -2 67 -20 63 -10
-2 -23 2 -27 9 -6 9 -8 9 -8 -2 0 -11 -3 -11 -15 -1 -12 10 -15 10 -15 0 0 -9
-4 -9 -17 1 -11 10 -14 10 -9 2 4 -7 3 -13 -3 -13 -5 0 -13 5 -17 11 -4 8 -9
7 -15 -2 -8 -12 -11 -11 -19 1 -8 12 -10 12 -10 1 0 -11 -3 -11 -15 -1 -12 10
-15 10 -15 0 0 -9 -4 -9 -17 1 -11 10 -14 10 -9 2 4 -7 3 -13 -3 -13 -5 0 -13
5 -17 11 -4 8 -9 7 -15 -2 -8 -12 -11 -11 -19 1 -8 12 -10 12 -10 1 0 -11 -3
-11 -15 -1 -12 10 -15 10 -15 0 0 -9 -4 -9 -17 1 -11 10 -14 10 -9 2 4 -7 3
-13 -3 -13 -5 0 -13 5 -17 11 -4 8 -9 7 -15 -2 -8 -12 -11 -11 -19 1 -8 12
-10 12 -10 1 0 -11 -3 -11 -15 -1 -12 10 -15 10 -15 -1 0 -10 -3 -10 -12 -1
-9 9 -16 8 -30 -5 -18 -16 -18 -16 -12 0 10 26 -1 20 -14 -8z"/>
<path d="M2051 2463 c-1 -6 -9 -10 -18 -8 -12 2 -19 -4 -20 -19 -2 -22 -10
-59 -13 -63 -2 -2 -4 -7 -5 -13 -1 -5 -3 -11 -5 -12 -2 -4 -10 -40 -12 -60 -1
-10 -7 -19 -13 -22 -6 -2 -10 -17 -9 -32 0 -16 -3 -31 -7 -34 -5 -3 -9 -20
-11 -38 -1 -18 -5 -32 -8 -32 -5 0 -9 -18 -12 -57 -1 -7 -5 -13 -10 -13 -5 0
-7 -4 -4 -8 3 -5 -2 -28 -10 -53 -9 -24 -16 -52 -17 -61 -1 -10 -5 -18 -10
-18 -4 0 -6 -4 -3 -9 4 -5 0 -12 -6 -14 -10 -4 -10 -6 -1 -6 9 -1 7 -15 -7
-50 -10 -27 -16 -52 -13 -55 4 -3 1 -6 -4 -6 -6 0 -10 -8 -8 -17 1 -10 -2 -24
-8 -30 -5 -7 -6 -13 -2 -13 4 0 3 -6 -3 -12 -11 -14 -12 -17 -12 -49 0 -11 -4
-18 -8 -15 -5 3 -8 -5 -7 -17 1 -12 -4 -37 -12 -55 -7 -18 -13 -38 -11 -45 1
-7 -3 -22 -10 -34 -7 -13 -9 -23 -5 -23 4 0 1 -5 -7 -10 -12 -8 -12 -10 -1
-10 11 0 10 -5 -4 -20 -10 -11 -15 -23 -12 -26 3 -4 0 -22 -9 -42 -8 -19 -12
-37 -9 -40 3 -3 1 -10 -4 -16 -7 -9 -34 -106 -36 -128 0 -3 -3 -10 -7 -14 -5
-4 -8 -17 -8 -29 0 -12 -3 -25 -7 -29 -4 -3 -8 -12 -9 -19 -9 -55 -15 -71 -26
-79 -10 -6 -10 -8 1 -8 11 0 11 -3 1 -15 -7 -8 -9 -15 -5 -15 4 0 2 -7 -5 -15
-7 -8 -10 -15 -6 -15 3 0 1 -11 -4 -24 -6 -18 -5 -28 6 -36 8 -8 14 -8 14 -2
0 12 18 11 39 -2 10 -6 12 -5 7 2 -4 7 -2 12 3 12 6 0 11 -6 11 -12 0 -8 3 -9
8 -3 4 6 21 10 37 9 44 -1 55 5 55 31 0 13 4 26 10 30 5 3 7 12 3 20 -3 8 -1
15 4 15 5 0 9 8 10 18 1 17 10 57 13 57 1 0 3 10 6 22 8 44 9 48 17 54 5 3 10
23 12 44 4 49 19 64 46 47 12 -8 18 -9 14 -3 -7 12 3 14 50 12 17 -1 45 -1 64
-1 18 0 39 -5 47 -11 12 -10 13 -8 8 7 -7 18 -7 18 13 1 16 -14 23 -15 29 -6
5 8 3 10 -6 4 -9 -5 -11 -4 -6 3 4 7 13 12 21 12 8 0 17 -5 21 -12 5 -7 3 -8
-6 -3 -8 5 -11 4 -6 -3 4 -6 13 -9 21 -6 8 4 13 9 11 13 -3 4 10 5 27 4 18 -2
47 -4 66 -3 18 0 39 -5 47 -11 12 -10 13 -9 8 6 -6 14 -4 16 7 9 8 -4 22 -7
32 -6 9 2 17 -2 17 -7 0 -6 -5 -11 -12 -11 -6 0 -3 -6 7 -14 11 -8 16 -19 12
-30 -4 -9 -2 -16 2 -16 5 0 12 -7 15 -16 3 -9 2 -12 -5 -8 -6 3 -4 -8 5 -24 9
-17 16 -40 16 -52 0 -11 4 -20 9 -20 6 0 8 -9 6 -20 -2 -11 0 -20 5 -20 5 0 7
-9 5 -20 -2 -11 0 -20 6 -20 5 0 9 -12 9 -26 0 -14 7 -32 15 -40 8 -9 15 -11
15 -6 0 11 18 11 38 -1 6 -5 12 -4 12 0 0 5 9 9 20 10 13 1 18 -2 14 -9 -5 -7
-2 -8 7 -2 19 11 51 16 45 6 -2 -4 4 -8 14 -8 11 0 17 2 15 5 -3 2 0 10 6 17
6 8 7 14 0 18 -6 4 -8 13 -4 21 3 8 1 15 -4 15 -5 0 -10 6 -11 13 0 6 -3 23
-7 37 -3 14 -8 32 -10 40 -2 8 -4 15 -5 15 -1 0 -4 13 -6 30 -3 16 -10 35 -16
42 -5 7 -7 17 -4 22 4 5 2 12 -4 16 -6 4 -8 11 -5 16 4 5 2 9 -2 9 -5 0 -9 8
-10 18 -3 42 -8 62 -15 62 -4 0 -5 9 -3 20 2 11 0 20 -6 20 -5 0 -9 11 -9 24
0 14 -5 28 -11 32 -6 3 -9 15 -6 25 3 11 2 19 -2 19 -4 0 -8 8 -9 18 -2 19 -9
54 -13 62 -1 3 -3 10 -4 15 -2 9 -4 17 -22 63 -3 9 -5 21 -4 26 1 4 -4 15 -11
24 -11 13 -11 14 1 8 9 -6 8 0 -4 17 -9 14 -16 28 -16 31 1 4 0 8 0 11 -1 3
-3 14 -4 25 -1 11 -4 22 -5 25 -1 3 -4 10 -5 15 -1 6 -4 12 -5 15 -4 8 -7 24
-9 41 0 8 -5 13 -10 10 -4 -3 -7 6 -5 19 1 14 -1 25 -6 25 -4 0 -6 11 -5 25 2
14 0 25 -5 25 -4 0 -7 10 -6 23 0 12 -4 21 -11 20 -7 -2 -10 3 -7 11 3 8 1 24
-6 35 -8 16 -8 21 2 21 8 1 7 4 -3 10 -10 6 -15 20 -14 35 2 14 -1 25 -6 25
-6 0 -7 5 -4 10 3 6 2 10 -3 10 -5 0 -8 11 -7 25 2 14 -1 25 -6 25 -5 0 -9 11
-9 24 0 14 -4 27 -8 30 -4 2 -9 19 -10 37 -2 18 -7 36 -13 39 -5 4 -10 23 -11
43 -1 20 -5 37 -10 37 -4 0 -8 12 -8 26 0 15 -8 33 -17 41 -10 8 -12 12 -5 8
21 -11 13 4 -9 16 -15 8 -19 8 -15 0 4 -6 4 -11 1 -11 -4 0 -16 5 -27 11 -15
8 -19 8 -14 0 4 -6 3 -11 -3 -11 -5 0 -12 4 -15 8 -6 10 -36 9 -53 -1 -6 -4
-14 -1 -16 5 -4 9 -6 10 -6 1z m68 -373 c4 0 7 -10 8 -22 0 -31 6 -52 16 -59
5 -3 9 -20 9 -37 1 -18 6 -32 11 -32 6 0 7 -3 4 -7 -4 -3 0 -17 9 -31 9 -13
11 -21 5 -18 -14 9 -14 10 8 -52 11 -28 17 -52 14 -52 -3 0 0 -6 6 -13 6 -8 8
-17 4 -20 -3 -4 -1 -7 6 -7 7 0 10 -4 6 -9 -3 -5 1 -29 10 -53 8 -24 15 -53
15 -65 0 -13 5 -23 10 -23 6 0 10 -13 10 -30 0 -16 4 -30 8 -30 4 0 9 -11 10
-25 1 -14 8 -41 16 -60 8 -19 11 -35 5 -35 -5 0 -9 -5 -9 -11 0 -5 6 -7 13 -3
8 5 8 3 -2 -9 -13 -16 -36 -14 -26 3 3 4 -3 7 -12 5 -10 -2 -35 -4 -56 -4 -27
-1 -36 -5 -31 -13 4 -6 -2 -5 -13 3 -26 18 -157 14 -146 -4 3 -7 -4 -3 -17 8
-22 19 -23 19 -16 1 5 -14 4 -16 -6 -8 -7 5 -30 9 -51 8 -33 -1 -36 0 -21 11
11 8 13 13 5 13 -8 0 -10 7 -6 21 4 12 9 29 10 38 2 9 4 17 4 19 1 1 1 4 1 7
1 2 7 20 16 40 8 19 11 35 8 35 -4 0 -1 7 6 15 7 8 9 15 5 15 -4 0 -3 6 2 13
6 6 9 20 8 29 -2 10 1 20 6 24 5 3 7 10 4 15 -4 5 -2 9 4 9 5 0 8 8 6 18 -1 9
2 23 8 30 5 6 6 12 2 12 -4 0 -2 7 5 15 7 8 10 15 7 15 -3 0 3 23 13 50 13 34
15 50 7 50 -7 0 -5 5 5 10 9 6 15 18 14 28 -2 9 2 20 8 24 7 5 6 8 -4 8 -12 0
-12 2 -2 9 7 4 14 18 15 29 1 12 4 22 7 22 3 0 6 8 7 18 9 87 13 104 20 80 2
-10 8 -18 12 -18z"/>
</g>
</svg>
