<?xml version="1.0" standalone="no"?>
<!DOCTYPE svg PUBLIC "-//W3C//DTD SVG 20010904//EN"
 "http://www.w3.org/TR/2001/REC-SVG-20010904/DTD/svg10.dtd">
<svg version="1.0" xmlns="http://www.w3.org/2000/svg"
 width="160.000000pt" height="160.000000pt" viewBox="0 0 160.000000 160.000000"
 preserveAspectRatio="xMidYMid meet">
<metadata>
Created by potrace 1.11, written by Peter Selinger 2001-2013
</metadata>
<g transform="translate(0.000000,160.000000) scale(0.100000,-0.100000)"
fill="#000000" stroke="none">
<path d="M404 1191 l2 -36 59 -2 c33 -1 70 -2 83 -2 l23 -1 -2 -247 c-1 -137
-5 -262 -10 -279 -5 -16 -20 -41 -35 -55 -22 -21 -35 -24 -92 -23 -40 0 -79 7
-97 16 -64 33 -71 32 -72 -11 -1 -22 3 -44 10 -49 41 -33 229 -50 261 -23 7 6
15 9 18 6 12 -12 88 79 100 119 8 27 12 137 12 331 l1 290 -132 1 -131 1 2
-36z"/>
<path d="M1041 1212 c-4 -9 -18 -51 -30 -92 -12 -41 -42 -138 -66 -215 -103
-328 -126 -406 -121 -413 2 -4 22 -7 43 -7 l38 1 27 79 27 80 130 2 130 1 22
-71 c12 -40 25 -76 29 -81 10 -10 89 -15 95 -5 3 3 -4 33 -15 65 -10 33 -57
185 -105 339 -112 365 -97 333 -151 333 -31 0 -47 -5 -53 -16z m99 -309 c27
-88 50 -165 50 -169 0 -5 -45 -9 -101 -10 l-101 0 5 25 c3 14 23 86 46 159 22
74 41 141 41 150 0 30 9 5 60 -155z"/>
</g>
</svg>
