<?xml version="1.0" standalone="no"?>
<!DOCTYPE svg PUBLIC "-//W3C//DTD SVG 20010904//EN"
 "http://www.w3.org/TR/2001/REC-SVG-20010904/DTD/svg10.dtd">
<svg version="1.0" xmlns="http://www.w3.org/2000/svg"
 width="310.000000pt" height="310.000000pt" viewBox="0 0 310.000000 310.000000"
 preserveAspectRatio="xMidYMid meet">
<metadata>
Created by potrace 1.11, written by Peter Selinger 2001-2013
</metadata>
<g transform="translate(0.000000,310.000000) scale(0.100000,-0.100000)"
fill="#000000" stroke="none">
<path d="M559 2543 c-2 -65 0 -153 4 -160 3 -5 93 -8 201 -8 191 1 196 0 197
-20 0 -11 1 -255 1 -542 0 -652 -4 -711 -59 -798 -57 -90 -148 -129 -286 -122
-45 2 -97 7 -116 11 -40 9 -168 59 -233 92 l-48 24 -1 -27 c-3 -96 0 -186 7
-193 16 -15 165 -61 248 -76 252 -46 465 6 585 142 51 58 97 147 110 214 6 30
14 71 17 90 7 36 14 1357 7 1376 -6 17 -633 14 -634 -3z"/>
<path d="M2102 2546 c-6 -8 -458 -1466 -548 -1769 -5 -16 3 -17 107 -15 l113
3 37 120 c21 66 48 154 61 195 l24 75 304 1 c168 0 311 -2 317 -4 7 -2 17 -18
22 -35 26 -92 93 -306 103 -329 l10 -28 119 0 c132 0 128 -3 104 70 -15 46
-23 72 -147 470 -38 124 -117 378 -175 565 -58 187 -116 374 -128 415 -13 41
-37 119 -54 174 -17 54 -31 99 -31 100 0 1 -52 2 -115 3 -74 0 -118 -4 -123
-11z m128 -434 c11 -39 69 -227 130 -417 60 -190 110 -349 110 -353 0 -4 -116
-7 -259 -8 l-258 0 7 30 c5 17 45 148 90 291 94 300 81 257 122 412 18 67 34
120 36 119 1 -2 11 -35 22 -74z"/>
</g>
</svg>
